<svg xmlns="http://www.w3.org/2000/svg" version="1.1" xmlns:xlink="http://www.w3.org/1999/xlink" width="512" height="512" x="0" y="0" viewBox="0 0 464 464" style="enable-background:new 0 0 512 512" xml:space="preserve" class=""><g><path fill="#8eb7de" d="M453.112 22.215 309 78 155 18 5.112 76.021A8 8 0 0 0 0 83.482v350.841c0 5.622 5.647 9.495 10.889 7.465L155 386l154 60 149.889-58.021a7.999 7.999 0 0 0 5.111-7.46V29.675c0-5.621-5.645-9.49-10.888-7.46z" opacity="1" data-original="#cbe3fa" class=""></path><path fill="#b5d5f5" d="M452.445 110.44c2.486-6.105 11.555-4.336 11.555 2.256v267.823c0 3.3-2.031 6.27-5.111 7.46L309 446V269.518a5.985 5.985 0 0 1 3.229-5.319 304.37 304.37 0 0 0 27.465-16.126c3.989-2.632 9.307.223 9.307 5.002v7.766c0 5.63 5.649 9.49 10.89 7.46l59-22.841a8 8 0 0 0 5.11-7.46v-71.958c0-1.169.349-2.314.991-3.291 11.834-18.015 20.736-35.816 27.453-52.311z" opacity="1" data-original="#b5d5f5"></path><path fill="#e0b7a3" d="M424 105.156V238a8 8 0 0 1-5.11 7.46l-59 22.841c-5.243 2.03-10.89-1.838-10.89-7.46v-132.84a8 8 0 0 1 5.111-7.46l59-22.845c5.243-2.03 10.889 1.838 10.889 7.46z" opacity="1" data-original="#e0b7a3"></path><path fill="#c79a83" d="M413.231 179.38c3.478-4.576 10.769-2.118 10.769 3.629V238c0 3.3-2.031 6.27-5.11 7.46l-59 22.841c-5.24 2.03-10.89-1.83-10.89-7.46v-16.094c0-1.926.93-3.726 2.486-4.862 22.905-16.71 43.823-36.925 61.745-60.505z" opacity="1" data-original="#c79a83"></path><path fill="#585966" d="M349.002 330.521a8.002 8.002 0 0 1-7.462-5.113 8 8 0 0 1 4.571-10.349l75-29.039a7.998 7.998 0 0 1 10.349 4.571 8 8 0 0 1-4.571 10.349c-81.557 31.573-75.749 29.581-77.887 29.581zM372.292 371.502a8.002 8.002 0 0 1-7.462-5.113 7.999 7.999 0 0 1 4.571-10.349l51.71-20.02a7.997 7.997 0 0 1 10.349 4.571 7.999 7.999 0 0 1-4.571 10.349c-56.382 21.826-52.472 20.562-54.597 20.562z" opacity="1" data-original="#585966"></path><path fill="#eef7ff" d="M155 18v368l154 60V78z" opacity="1" data-original="#eef7ff" class=""></path><path fill="#8eb7de" d="M309 192.248V446l-154-60V284.193a6.007 6.007 0 0 1 5.321-5.961c17.856-2.099 43.944-7.414 69.748-20.756a6.038 6.038 0 0 1 4.969-.283l23.053 8.977c5.25 2.04 10.908-1.821 10.908-7.451v-26.864c0-1.579.632-3.083 1.734-4.213 11.171-11.452 20.152-24.42 26.911-38.095 2.802-5.667 11.356-3.62 11.356 2.701z" opacity="1" data-original="#cbe3fa" class=""></path><path fill="#fff0a6" d="M269 157.888v100.83c0 5.629-5.663 9.496-10.908 7.451l-57.997-22.604a8 8 0 0 1-5.095-7.454V135.284c0-5.629 5.66-9.498 10.905-7.454l58 22.604a8.001 8.001 0 0 1 5.095 7.454z" opacity="1" data-original="#fff0a6"></path><path fill="#ffe773" d="M259.17 238.312c3.91-3.246 9.83-.472 9.83 4.61v15.797c0 5.63-5.658 9.491-10.908 7.451l-14.035-5.465c-4.603-1.793-5.167-8.032-.997-10.68a156.836 156.836 0 0 0 16.11-11.713z" opacity="1" data-original="#ffe773" class=""></path><g fill="#585966"><path d="M268.998 116.422c-2.138 0 4.181 2.216-76.903-29.388a8 8 0 0 1 5.81-14.908l74 28.84a8 8 0 0 1-2.907 15.456zM268.998 367.422c-2.138 0 4.181 2.216-76.903-29.388a8 8 0 0 1 5.81-14.908l74 28.84a8 8 0 0 1-2.907 15.456zM268.998 324.422c-2.138 0 4.181 2.216-76.903-29.388a8 8 0 0 1 5.81-14.908l74 28.84a8 8 0 0 1-2.907 15.456z" fill="#585966" opacity="1" data-original="#585966"></path></g><path fill="#b5d5f5" d="M155 143.08V386L10.889 441.788C5.649 443.808 0 439.953 0 434.322V299.92a6.01 6.01 0 0 1 4.311-5.756 216.321 216.321 0 0 0 27.244-10.147c3.96-1.788 8.445 1.131 8.445 5.476v19.347c0 5.63 5.649 9.49 10.89 7.46l59-22.841a8 8 0 0 0 5.11-7.46v-68.863c0-1.217.38-2.403 1.069-3.405 16.933-24.591 25.977-49.947 31.039-71.563 1.085-4.63 7.892-3.844 7.892.912z" opacity="1" data-original="#b5d5f5"></path><path fill="#ff8c95" d="M115 95.156V286a8 8 0 0 1-5.11 7.46l-59 22.841c-5.243 2.03-10.89-1.838-10.89-7.46v-190.84a8 8 0 0 1 5.111-7.46l59-22.845c5.243-2.03 10.889 1.838 10.889 7.46z" opacity="1" data-original="#ff8c95"></path><path fill="#ff6d7a" d="M104.411 229.056c3.601-4.291 10.589-1.747 10.589 3.855V286c0 3.3-2.031 6.27-5.11 7.46l-59 22.841c-5.24 2.03-10.89-1.83-10.89-7.46v-25.21a5.973 5.973 0 0 1 3.175-5.29c24.2-12.752 44.799-29.696 61.236-49.285z" opacity="1" data-original="#ff6d7a"></path><path fill="#585966" d="M40.002 378.521a8.002 8.002 0 0 1-7.462-5.113 8 8 0 0 1 4.571-10.349l75-29.039c4.121-1.599 8.754.452 10.349 4.571a8 8 0 0 1-4.571 10.349c-81.557 31.573-75.749 29.581-77.887 29.581z" opacity="1" data-original="#585966"></path></g></svg>