<svg xmlns="http://www.w3.org/2000/svg" version="1.1" xmlns:xlink="http://www.w3.org/1999/xlink" width="512" height="512" x="0" y="0" viewBox="0 0 24 24" style="enable-background:new 0 0 512 512" xml:space="preserve" class=""><g><linearGradient id="a"><stop offset="0" stop-opacity=".1"></stop><stop offset="1" stop-opacity="0"></stop></linearGradient><linearGradient xlink:href="#a" id="b" x1="16.703" x2="20.952" y1="4.607" y2="8.855" gradientUnits="userSpaceOnUse"></linearGradient><linearGradient xlink:href="#a" id="c" x1="12.432" x2="20.464" y1="13.918" y2="21.95" gradientUnits="userSpaceOnUse"></linearGradient><linearGradient id="d" x1=".265" x2="23.05" y1="7.422" y2="18.046" gradientUnits="userSpaceOnUse"><stop offset="0" stop-color="#fff" stop-opacity=".2"></stop><stop offset="1" stop-color="#fff" stop-opacity="0"></stop></linearGradient><path fill="#303c42" d="m20.854 5.146-5-5A.504.504 0 0 0 15.5 0H5C3.897 0 3 .897 3 2v20c0 1.103.897 2 2 2h14c1.103 0 2-.897 2-2V5.5a.504.504 0 0 0-.146-.354z" opacity="1" data-original="#303c42"></path><path fill="#e6e6e6" d="M16 1.707 19.293 5H17c-.552 0-1-.449-1-1z" opacity="1" data-original="#e6e6e6"></path><path fill="#ffffff" d="M19 23H5c-.552 0-1-.449-1-1V2c0-.551.448-1 1-1h10v3c0 1.103.897 2 2 2h3v16c0 .551-.448 1-1 1z" opacity="1" data-original="#ffffff"></path><path fill="url(#a)" d="M17 6c-.469 0-.895-.169-1.237-.44l-.012-.001L20 9.807V6z" opacity="1" data-original="url(#a)"></path><path fill="#303c42" d="M12 6.999c-2.77 0-5 2.462-5 4.501 0 1.656 1.479 5.363 3.443 6.895a.503.503 0 0 0 .308.105h2.501c.111 0 .22-.037.308-.105C15.522 16.863 17 13.156 17 11.5c0-2.039-2.23-4.501-5-4.501z" opacity="1" data-original="#303c42"></path><g fill="#7cb342"><path d="M12.704 8.075c.935.935 2.506 2.714-.531 9.425h-.347c-3.037-6.712-1.465-8.49-.53-9.425.23-.044.464-.076.704-.076.239 0 .474.032.704.076z" fill="#7cb342" opacity="1" data-original="#7cb342"></path><path d="M7.999 11.5c0-.872.577-1.841 1.447-2.542-.613 1.408-.736 3.781 1.136 8.193-1.515-1.565-2.583-4.495-2.583-5.651zM13.415 17.154c1.873-4.414 1.75-6.786 1.138-8.195.87.7 1.447 1.669 1.447 2.541 0 1.156-1.069 4.088-2.585 5.654z" fill="#7cb342" opacity="1" data-original="#7cb342"></path></g><path fill="#303c42" d="M12.5 19h-1a.5.5 0 0 0-.5.5v1a.5.5 0 0 0 .5.5h1a.5.5 0 0 0 .5-.5v-1a.5.5 0 0 0-.5-.5z" opacity="1" data-original="#303c42"></path><path fill="url(#a)" d="m11.145 20.852.001.001zm5.397-11.045-.003.004c.293.556.461 1.138.461 1.689 0 1.656-1.478 5.363-3.442 6.895a.503.503 0 0 1-.308.105h-2.5c-.08 0-.15-.04-.221-.076l-.009.013.676.676A.488.488 0 0 1 11.5 19h1a.5.5 0 0 1 .5.5v1a.5.5 0 0 1-.5.5h-1a.498.498 0 0 1-.353-.146L13.305 23H19c.552 0 1-.449 1-1v-8.735z" opacity="1" data-original="url(#a)"></path><path fill="url(#d)" d="m20.854 5.146-5-5A.504.504 0 0 0 15.5 0H5C3.897 0 3 .897 3 2v20c0 1.103.897 2 2 2h14c1.103 0 2-.897 2-2V5.5a.504.504 0 0 0-.146-.354z" opacity="1" data-original="url(#d)" class=""></path></g></svg>