<svg xmlns="http://www.w3.org/2000/svg" version="1.1" xmlns:xlink="http://www.w3.org/1999/xlink" width="512" height="512" x="0" y="0" viewBox="0 0 512 512" style="enable-background:new 0 0 512 512" xml:space="preserve" class=""><g><rect width="512" height="512" fill="#00005b" rx="135" opacity="1" data-original="#00005b" class=""></rect><path fill="#9999ff" d="M156.1 292.64v77.35h-54.96V142.01h90.98c17.43 0 32.86 3.21 46.27 9.63s23.8 15.55 31.16 27.4 11.04 25.29 11.04 40.32c0 22.24-7.96 40.01-23.88 53.32s-37.76 19.96-65.53 19.96zm0-42.43h36.01c10.65 0 18.76-2.66 24.35-7.99 5.58-5.32 8.38-12.84 8.38-22.55 0-10.65-2.87-19.15-8.61-25.52s-13.57-9.6-23.49-9.71H156.1zm253.83-1.88-17.38-1.25c-16.6 0-27.25 5.22-31.94 15.66V370h-52.77V200.57h49.48l1.72 21.77c8.87-16.6 21.24-24.9 37.11-24.9 5.64 0 10.54.63 14.72 1.88z" data-name="Pr" opacity="1" data-original="#9999ff"></path></g></svg>