<svg xmlns="http://www.w3.org/2000/svg" version="1.1" xmlns:xlink="http://www.w3.org/1999/xlink" width="512" height="512" x="0" y="0" viewBox="0 0 32 32" style="enable-background:new 0 0 512 512" xml:space="preserve" class=""><g><path d="M24 17V3a1 1 0 0 0-1-1H3a1 1 0 0 0-1 1v14a1 1 0 0 0 1 1h20a1 1 0 0 0 1-1zM9 14a4 4 0 1 1 0-8 4 4 0 0 1 0 8zm11.5 1h-5a.5.5 0 1 1 0-1h5a.5.5 0 1 1 0 1zm0-3h-5a.5.5 0 1 1 0-1h5a.5.5 0 1 1 0 1zm0-3h-5a.5.5 0 1 1 0-1h5a.5.5 0 1 1 0 1zm0-3h-5a.5.5 0 1 1 0-1h5a.5.5 0 1 1 0 1z" fill="#ffffff" opacity="1" data-original="#000000" class=""></path><path d="M27 23V9a1 1 0 0 0-1-1h-1v10a1 1 0 0 1-1 1H5v4a1 1 0 0 0 1 1h20a1 1 0 0 0 1-1zm-3.5-2h-5a.5.5 0 1 1 0-1h5a.5.5 0 1 1 0 1z" fill="#ffffff" opacity="1" data-original="#000000" class=""></path><path d="M29 14h-1v10a1 1 0 0 1-1 1H8v4a1 1 0 0 0 1 1h20a1 1 0 0 0 1-1V15a1 1 0 0 0-1-1zm-2.5 13h-5a.5.5 0 1 1 0-1h5a.5.5 0 1 1 0 1z" fill="#ffffff" opacity="1" data-original="#000000" class=""></path></g></svg>